<svg xmlns="http://www.w3.org/2000/svg">

  <symbol id="htmlacademy" viewBox="0 0 60 60">
    <path fill="#2E368F" d="M30.2 5h-.2l-19.7 2.1v36.2l19.7 11.7 19.7-11.7v-36.2l-19.5-2.1zm17 36.8l-17.2 10.2-17.2-10.2v-14.8l17.1 10.2v1.8l-11.7-7v1.8l11.8 7.1v1.9l-11.8-7v1.8l11.8 7 11.9-7.1v-7.6l5.3-3.2v15.1zm-.1-17l-4.7 2.8-2.2 1.3-10.3-6.1v1.8l8.8 5.3h-.1l-.2.1-1.3.7-7.3-4.3v1.8l5.8 3.4-1.4.9-4.3-2.6v1.8l2.9 1.7-2.9 1.7-17-10.1 17-10.2 17.2 10zm.1-1.8l-17.3-10.2-17.1 10.2v-13.6l17.2-1.8 17.2 1.8v13.6z"/>
  </symbol>

  <symbol id="logo-mobile" viewBox="0 0 96 15">
    <path d="M94.9113 6.18874C95.6371 5.72747 96 5.01634 96 4.05535C96 2.79967 95.4774 1.81306 94.4322 1.09552C93.4161 0.365174 92.2185 0 90.8394 0C89.4894 0 88.2555 0.397207 87.1378 1.19162C86.0345 1.97322 85.4829 3.01749 85.4829 4.32443C85.4829 4.81133 85.6353 5.21494 85.9402 5.53527C86.245 5.84278 86.6805 5.99654 87.2467 5.99654C87.7983 5.99654 88.2193 5.84278 88.5096 5.53527C88.8144 5.21494 88.9668 4.81133 88.9668 4.32443C88.9378 3.95285 89.0612 3.57486 89.337 3.19047C89.6128 2.79326 90.1136 2.59466 90.8394 2.59466C91.4491 2.60747 91.8846 2.76123 92.1459 3.05593C92.4217 3.35063 92.5451 3.64533 92.5161 3.94003C92.5161 4.14504 92.4435 4.35005 92.2983 4.55506C92.1532 4.76007 92.0008 4.92024 91.8411 5.03556C91.6959 5.15088 91.4564 5.31745 91.1225 5.53527C90.7886 5.75309 90.5564 5.90685 90.4257 5.99654C89.6709 6.54751 89.2935 7.27785 89.2935 8.18758C89.2935 8.63604 89.4531 9.01403 89.7725 9.32155C90.1064 9.61625 90.5491 9.7636 91.1007 9.7636C91.6524 9.7636 92.0878 9.61625 92.4072 9.32155C92.7411 9.01403 92.908 8.63604 92.908 8.18758C92.908 7.99539 92.9443 7.816 93.0169 7.64943C93.0895 7.48286 93.2056 7.32911 93.3653 7.18816C93.5395 7.04722 93.6846 6.9319 93.8008 6.84221C93.9314 6.75252 94.1201 6.6372 94.3669 6.49625C94.6282 6.35531 94.8097 6.2528 94.9113 6.18874Z"/>
    <path d="M76.3053 10.2354L80.1618 5.46351C80.5573 4.88748 81.0941 4.56674 81.7722 4.50128C82.4502 4.42273 83.0435 4.58638 83.5521 4.99221C84.0606 5.39805 84.3008 5.94135 84.2725 6.62211V13.4559C84.2725 13.8879 84.103 14.2545 83.764 14.5556C83.4391 14.8436 83.0435 14.9876 82.5774 14.9876C82.1112 14.9876 81.7086 14.8436 81.3696 14.5556C81.0447 14.2545 80.8822 13.8879 80.8822 13.4559V9.21424L77.0257 13.9861C76.6302 14.5622 76.0934 14.8829 75.4153 14.9484C74.7373 15.0269 74.144 14.8633 73.6354 14.4574C73.1269 14.0516 72.8867 13.5083 72.915 12.8275V6.01336C72.915 5.58133 73.0774 5.21477 73.4023 4.91367C73.7413 4.61256 74.144 4.46201 74.6101 4.46201C75.0763 4.46201 75.4718 4.61256 75.7967 4.91367C76.1358 5.21477 76.3053 5.58133 76.3053 6.01336V10.2354Z"/>
    <path fill-rule="evenodd" clip-rule="evenodd" d="M58.967 13.3889V5.97502C58.967 5.54871 58.7887 5.18234 58.4323 4.87593C58.0901 4.5562 57.6837 4.39633 57.2132 4.39633C56.7569 4.39633 56.3576 4.5562 56.0154 4.87593C55.6732 5.18234 55.5021 5.54871 55.5021 5.97502V5.79517C55.331 5.3955 54.9888 5.05578 54.4755 4.77601C53.9622 4.48292 53.3776 4.33638 52.7217 4.33638C51.4384 4.33638 50.2549 4.80932 49.1712 5.7552C48.1161 6.70109 47.5885 8.00001 47.5885 9.65198C47.5885 11.3439 48.109 12.6562 49.1498 13.5887C50.1907 14.5213 51.3813 14.9876 52.7217 14.9876C53.3776 14.9876 53.955 14.8677 54.4541 14.6279C54.9531 14.3747 55.3167 14.075 55.5449 13.7286C55.6304 14.0883 55.8301 14.3881 56.1438 14.6279C56.4574 14.8543 56.8139 14.9676 57.2132 14.9676C57.6837 14.9676 58.0901 14.8144 58.4323 14.508C58.7887 14.2015 58.967 13.8285 58.967 13.3889ZM53.4968 12.0265C54.6657 12.0265 55.6133 11.0009 55.6133 9.73559C55.6133 8.47034 54.6657 7.44464 53.4968 7.44464C52.328 7.44464 51.3804 8.47034 51.3804 9.73559C51.3804 11.0009 52.328 12.0265 53.4968 12.0265Z"/>
    <path d="M43.0813 8.23733V6.09447C43.0813 5.65909 43.2578 5.28968 43.6109 4.98624C43.9639 4.6696 44.3758 4.51128 44.8466 4.51128C45.3173 4.51128 45.7292 4.6696 46.0822 4.98624C46.4353 5.28968 46.6118 5.65909 46.6118 6.09447V13.4365C46.6118 13.8719 46.4353 14.2413 46.0822 14.5448C45.7439 14.8482 45.332 14.9999 44.8466 14.9999C44.3611 14.9999 43.9419 14.8482 43.5888 14.5448C43.2505 14.2413 43.0813 13.8719 43.0813 13.4365V11.262H39.264V13.4365C39.264 13.8719 39.0875 14.2413 38.7344 14.5448C38.3961 14.8482 37.9842 14.9999 37.4988 14.9999C37.0133 14.9999 36.5941 14.8482 36.241 14.5448C35.9027 14.2413 35.7335 13.8719 35.7335 13.4365V6.09447C35.7335 5.65909 35.9101 5.28968 36.2631 4.98624C36.6161 4.6696 37.028 4.51128 37.4988 4.51128C37.9695 4.51128 38.3814 4.6696 38.7344 4.98624C39.0875 5.28968 39.264 5.65909 39.264 6.09447V8.23733H43.0813Z"/>
    <path d="M33.9622 4.51128C34.308 4.51128 34.6045 4.64246 34.8515 4.90482C35.0985 5.16718 35.222 5.7719 35.222 6.1392C35.222 6.50651 35.0985 6.8863 34.8515 7.14866C34.6045 7.41102 34.308 7.5033 33.9622 7.5033H31.0038V13.4743C31.0038 14.6043 30.0103 15 29.014 15C28.0896 15 27.207 14.4993 27.207 13.4849L27.2376 4.51128C27.2376 4.51128 32.3922 4.51128 33.9622 4.51128Z"/>
    <path d="M12.8551 0V13.3315C12.8551 13.7712 12.6164 14.1441 12.2855 14.4505C11.9684 14.757 11.4699 14.9102 11.0149 14.9102C10.5599 14.9102 9.9021 14.757 9.57117 14.4505C9.25404 14.1441 9.09547 13.7711 9.09547 13.3315V3.00913H3.77227V13.3315C3.77227 13.7711 3.60681 14.1441 3.27589 14.4505C2.95875 14.757 2.31306 14.9102 1.85804 14.9102C1.40303 14.9102 0.806623 14.757 0.475701 14.4505C0.158567 14.1441 0 13.7711 0 13.3315V0C4.26062 0 12.8551 0 12.8551 0Z"/>
    <path d="M24.6375 13.365C23.5609 14.3757 22.1202 14.8811 20.3154 14.8811C18.5106 14.8811 17.0778 14.3757 16.0171 13.365C14.9247 12.3391 14.3785 11.0569 14.3785 9.51811C14.3785 7.96428 14.9247 6.68199 16.0171 5.67125C17.0778 4.6605 18.5106 4.15513 20.3154 4.15513C22.1202 4.15513 23.5609 4.6605 24.6375 5.67125C25.714 6.69708 26.2523 7.97937 26.2523 9.51811C26.2523 11.0569 25.714 12.3391 24.6375 13.365ZM21.8353 7.93411C21.5345 7.61731 21.1624 7.42874 20.7191 7.36839C20.2917 7.29296 19.88 7.33068 19.4843 7.48154C19.1043 7.63239 18.7797 7.88885 18.5106 8.25091C18.2573 8.61297 18.1465 9.03537 18.1781 9.51811C18.1781 10.1517 18.376 10.6797 18.7718 11.1021C19.1835 11.5094 19.698 11.7131 20.3154 11.7131C20.9487 11.7131 21.4632 11.517 21.859 11.1247C22.2548 10.7174 22.4527 10.1819 22.4527 9.51811C22.4527 8.88451 22.2469 8.35651 21.8353 7.93411Z"/>
    <path d="M64.0219 4.46201C66.0459 4.46201 71.4392 4.49207 71.4392 4.49207C71.4392 4.49207 71.4433 11.0831 71.4433 13.3863C71.4433 13.8287 71.2612 14.2101 70.8972 14.5305C70.5497 14.8356 70.2353 14.9882 69.7058 14.9882C69.1763 14.9882 68.9064 15.0283 68.5424 14.7232C68.1949 14.4028 67.8752 13.8287 67.8752 13.3863V7.43679H65.4188C65.4188 11.7016 65.4189 12.6387 63.8482 14.1644C63.269 14.7136 62.5244 14.9882 61.6143 14.9882C61.0683 14.9882 60.7474 14.8573 60.4 14.5522C60.0525 14.2318 59.7828 13.7205 59.7828 13.2476C59.7828 12.2296 59.9964 11.8245 60.5424 11.1604C62.1091 11.1604 62.0413 10.7809 61.943 7.89444V6.06381C61.9596 5.62141 62.0413 4.46201 62.0413 4.46201C62.0413 4.46201 63.542 4.46201 64.0219 4.46201Z"/>
    <path d="M93.1598 12.7451C93.1598 13.9835 92.1101 14.9875 90.8153 14.9875C89.5204 14.9875 88.4707 13.9835 88.4707 12.7451C88.4707 11.5066 89.5204 10.5027 90.8153 10.5027C92.1101 10.5027 93.1598 11.5066 93.1598 12.7451Z"/>
  </symbol>

  <symbol id="facebook" viewBox="0 0 11 21" fill="none">
    <path d="M7.48786 20.8125H2.12929V11.1375H0V6.3525H2.06643C1.90929 4.185 2.30214 2.6025 3.26071 1.5225C3.71777 1.04316 4.27461 0.66015 4.89562 0.397985C5.51662 0.13582 6.18812 0.000268301 6.86714 0L10.6229 0V4.6125H7.66857C7.49452 5.1766 7.42799 5.76595 7.47214 6.3525H10.615V11.1375H7.47214L7.48786 20.8125ZM3.31571 19.6875H6.28571V10.0125H9.42857V7.5H6.28571V6.93C6.28571 5.43 6.28571 4.0875 7.07143 3.585L7.22071 3.4875H9.42857V1.125H6.89857C6.38444 1.11866 5.87465 1.21553 5.40225 1.40933C4.92986 1.60314 4.50541 1.88955 4.15643 2.25C3.37071 3.1725 3.04857 4.7175 3.29214 6.855L3.37071 7.4775H1.17857V10.0125H3.31571V19.6875Z" fill="#192144"/>
  </symbol>

  <symbol id="vkontakte" viewBox="0 0 23 12" fill="none">
    <path d="M17.7664 11.8331C17.219 11.8207 16.6854 11.6573 16.2232 11.3606C15.7407 11.031 15.2975 10.6459 14.9026 10.2132C14.5761 9.88315 14.0345 9.32815 13.8268 9.32815C13.619 9.32815 13.4706 10.0181 13.478 10.5056C13.4812 10.8422 13.3564 11.167 13.1293 11.4131C12.8712 11.6263 12.5561 11.7569 12.2242 11.7881H10.7997C8.75222 11.7426 6.79178 10.9425 5.28708 9.53815C2.55676 7.01065 0.21224 2.18065 0.115789 1.97065C0.0237889 1.79521 -0.0147389 1.59616 0.00506792 1.3986C0.0248747 1.20105 0.102128 1.01386 0.227079 0.860649C0.509857 0.622256 0.867951 0.494496 1.23611 0.500649H4.26321H4.35224C4.6027 0.537588 4.84277 0.626997 5.05708 0.763149C5.25875 0.899848 5.42022 1.08899 5.5245 1.31065C5.8444 2.00295 6.2113 2.67204 6.62256 3.31315C7.5945 4.81315 8.02482 5.15815 8.18063 5.23315C8.35396 4.52985 8.40169 3.80091 8.3216 3.08065C8.3476 2.7526 8.29412 2.4231 8.16579 2.12065C8.00289 1.98893 7.80288 1.91278 7.5945 1.90315L7.05289 1.38565C6.94901 0.890649 7.49063 0.463149 7.86902 0.298149C8.62414 0.0589723 9.41638 -0.0376377 10.2061 0.013149H10.7329C11.2686 -0.000953053 11.8041 0.0494006 12.328 0.163149C13.5893 0.433149 13.5448 1.46065 13.4929 2.64565C13.4929 2.99065 13.4558 3.39565 13.4558 3.86065C13.4558 3.97315 13.4558 4.09315 13.4558 4.22065C13.4266 4.54717 13.4492 4.87631 13.5226 5.19565C14.1402 4.67331 14.6604 4.04337 15.0584 3.33565C15.4879 2.66645 15.865 1.96431 16.1861 1.23565C16.2839 1.00519 16.4516 0.812043 16.6649 0.684009C16.8782 0.555974 17.1262 0.499653 17.3732 0.523149H20.5487C20.6425 0.514104 20.7369 0.514104 20.8306 0.523149C21.5726 0.523149 22.0103 0.740649 22.1884 1.16065C22.3664 1.58065 22.3145 2.40565 20.4374 4.61815L19.6955 5.46565C19.336 5.81847 19.0264 6.21976 18.7755 6.65815C19.0565 6.98108 19.3754 7.2682 19.7251 7.51315C20.5778 8.16264 21.3283 8.93894 21.951 9.81565C22.097 9.98613 22.1925 10.1948 22.2266 10.4176C22.2608 10.6405 22.2321 10.8685 22.1439 11.0756C21.9884 11.3051 21.7803 11.4931 21.5375 11.6237C21.2946 11.7542 21.0241 11.8235 20.749 11.8256L17.9371 11.8631L17.7664 11.8331ZM13.8268 8.20315C14.4945 8.20315 15.0732 8.79565 15.689 9.41815C16.0217 9.78534 16.3951 10.1125 16.8019 10.3931C17.1096 10.6 17.4711 10.7096 17.8406 10.7081H17.9148L20.7342 10.6706C20.8732 10.6626 21.0094 10.6269 21.1348 10.5656L21.0606 10.4456C20.499 9.67196 19.8292 8.98479 19.0722 8.40565C18.1893 7.65565 17.7368 7.30315 17.6848 6.72565C17.6329 6.14815 18.0484 5.64565 18.8793 4.69315L19.6213 3.86065C20.2477 3.21479 20.7619 2.46681 21.1422 1.64815C20.9767 1.63823 20.8107 1.63823 20.6451 1.64815H17.4029C17.3443 1.6349 17.2835 1.6349 17.2248 1.64815C16.8814 2.44423 16.4719 3.20947 16.0006 3.93565C14.5984 6.05065 13.938 6.33565 13.4706 6.33565C13.3257 6.33565 13.183 6.29959 13.0551 6.23065C12.3132 5.80315 12.3132 4.85065 12.3577 4.16065C12.3577 4.04815 12.3577 3.93565 12.3577 3.83815C12.3577 3.35065 12.3577 2.93065 12.3948 2.57065C12.4542 1.31065 12.3948 1.30315 12.1129 1.23565C11.6586 1.14491 11.1958 1.10467 10.7329 1.11565H10.221C9.74988 1.10581 9.27872 1.13088 8.81127 1.19065C8.88206 1.24338 8.94459 1.30659 8.99676 1.37815C9.30278 1.8659 9.4554 2.43595 9.4345 3.01315C9.53095 4.25065 9.47902 5.86315 8.69256 6.25315C8.5533 6.31903 8.40115 6.35235 8.2474 6.35065C7.5574 6.35065 6.87482 5.69065 5.70998 3.90565C5.26298 3.22218 4.86383 2.50794 4.51547 1.76815L4.45611 1.69315C4.38118 1.65454 4.30126 1.62677 4.21869 1.61065H1.25095H1.19901C1.63676 2.52565 3.71418 6.57565 6.03643 8.69815C7.34044 9.90918 9.02993 10.6088 10.7997 10.6706H12.1722C12.2422 10.6555 12.3097 10.6303 12.3726 10.5956C12.3726 10.5956 12.3726 10.5956 12.3726 10.5281C12.3726 10.3256 12.3726 8.57815 13.5448 8.27815C13.6356 8.24202 13.7302 8.21685 13.8268 8.20315Z" fill="#192144"/>
  </symbol>

  <symbol id="instagram" viewBox="0 0 18 18" fill="none">
    <path d="M12.9602 1.80061C13.8189 1.80251 14.6419 2.14448 15.2491 2.75169C15.8563 3.35889 16.1982 4.18189 16.2002 5.04061V12.9606C16.1982 13.8193 15.8563 14.6423 15.2491 15.2495C14.6419 15.8567 13.8189 16.1987 12.9602 16.2006H5.04015C4.18269 16.1968 3.36153 15.854 2.75588 15.247C2.15022 14.64 1.80925 13.8181 1.80735 12.9606V5.04061C1.80925 4.18314 2.15022 3.36122 2.75588 2.75422C3.36153 2.14722 4.18269 1.80441 5.04015 1.80061H12.9602ZM12.9602 0.720612H5.04015C3.89442 0.720612 2.79561 1.17575 1.98545 1.98591C1.1753 2.79607 0.720154 3.89488 0.720154 5.04061L0.720154 12.9606C0.720154 14.1063 1.1753 15.2052 1.98545 16.0153C2.79561 16.8255 3.89442 17.2806 5.04015 17.2806H12.9602C14.1059 17.2806 15.2047 16.8255 16.0149 16.0153C16.825 15.2052 17.2802 14.1063 17.2802 12.9606V5.04061C17.2802 3.89488 16.825 2.79607 16.0149 1.98591C15.2047 1.17575 14.1059 0.720612 12.9602 0.720612V0.720612Z" fill="#192144"/>
    <path d="M9.00697 5.81737C9.63781 5.81737 10.2545 6.00444 10.779 6.35492C11.3035 6.7054 11.7124 7.20354 11.9538 7.78637C12.1952 8.36919 12.2584 9.01051 12.1353 9.62923C12.0122 10.248 11.7084 10.8163 11.2624 11.2624C10.8163 11.7084 10.248 12.0122 9.62923 12.1353C9.01051 12.2584 8.36918 12.1952 7.78636 11.9538C7.20354 11.7124 6.70539 11.3035 6.35491 10.779C6.00443 10.2545 5.81737 9.63782 5.81737 9.00697C5.81642 8.58784 5.89827 8.17265 6.05823 7.78524C6.21818 7.39784 6.45309 7.04584 6.74946 6.74947C7.04583 6.4531 7.39783 6.21819 7.78524 6.05823C8.17265 5.89828 8.58784 5.81642 9.00697 5.81737ZM9.00697 4.73737C8.16222 4.73595 7.33602 4.98514 6.63295 5.45343C5.92987 5.92171 5.3815 6.58803 5.05724 7.36807C4.73298 8.14811 4.6474 9.00681 4.81133 9.83551C4.97526 10.6642 5.38133 11.4256 5.97816 12.0235C6.57498 12.6213 7.33574 13.0287 8.16416 13.194C8.99258 13.3593 9.85142 13.2752 10.632 12.9523C11.4126 12.6293 12.0798 12.0821 12.5493 11.3798C13.0188 10.6775 13.2694 9.85173 13.2694 9.00697C13.2703 8.44662 13.1608 7.89158 12.947 7.37361C12.7332 6.85564 12.4194 6.38491 12.0235 5.98835C11.6276 5.59178 11.1574 5.27717 10.6398 5.06252C10.1222 4.84786 9.56732 4.73737 9.00697 4.73737Z" fill="#192144"/>
    <path d="M13.4282 5.55936C13.9611 5.55936 14.393 5.12741 14.393 4.59456C14.393 4.06172 13.9611 3.62976 13.4282 3.62976C12.8954 3.62976 12.4634 4.06172 12.4634 4.59456C12.4634 5.12741 12.8954 5.55936 13.4282 5.55936Z" fill="#192144"/>
  </symbol>


</svg>



