<svg xmlns="http://www.w3.org/2000/svg">

  <symbol id="htmlacademy" viewBox="0 0 60 60">
    <path fill="#2E368F" d="M30.2 5h-.2l-19.7 2.1v36.2l19.7 11.7 19.7-11.7v-36.2l-19.5-2.1zm17 36.8l-17.2 10.2-17.2-10.2v-14.8l17.1 10.2v1.8l-11.7-7v1.8l11.8 7.1v1.9l-11.8-7v1.8l11.8 7 11.9-7.1v-7.6l5.3-3.2v15.1zm-.1-17l-4.7 2.8-2.2 1.3-10.3-6.1v1.8l8.8 5.3h-.1l-.2.1-1.3.7-7.3-4.3v1.8l5.8 3.4-1.4.9-4.3-2.6v1.8l2.9 1.7-2.9 1.7-17-10.1 17-10.2 17.2 10zm.1-1.8l-17.3-10.2-17.1 10.2v-13.6l17.2-1.8 17.2 1.8v13.6z"/>
  </symbol>

  <symbol id="logo-mobile" viewBox="0 0 96 15">
    <path d="M94.9113 6.18874C95.6371 5.72747 96 5.01634 96 4.05535C96 2.79967 95.4774 1.81306 94.4322 1.09552C93.4161 0.365174 92.2185 0 90.8394 0C89.4894 0 88.2555 0.397207 87.1378 1.19162C86.0345 1.97322 85.4829 3.01749 85.4829 4.32443C85.4829 4.81133 85.6353 5.21494 85.9402 5.53527C86.245 5.84278 86.6805 5.99654 87.2467 5.99654C87.7983 5.99654 88.2193 5.84278 88.5096 5.53527C88.8144 5.21494 88.9668 4.81133 88.9668 4.32443C88.9378 3.95285 89.0612 3.57486 89.337 3.19047C89.6128 2.79326 90.1136 2.59466 90.8394 2.59466C91.4491 2.60747 91.8846 2.76123 92.1459 3.05593C92.4217 3.35063 92.5451 3.64533 92.5161 3.94003C92.5161 4.14504 92.4435 4.35005 92.2983 4.55506C92.1532 4.76007 92.0008 4.92024 91.8411 5.03556C91.6959 5.15088 91.4564 5.31745 91.1225 5.53527C90.7886 5.75309 90.5564 5.90685 90.4257 5.99654C89.6709 6.54751 89.2935 7.27785 89.2935 8.18758C89.2935 8.63604 89.4531 9.01403 89.7725 9.32155C90.1064 9.61625 90.5491 9.7636 91.1007 9.7636C91.6524 9.7636 92.0878 9.61625 92.4072 9.32155C92.7411 9.01403 92.908 8.63604 92.908 8.18758C92.908 7.99539 92.9443 7.816 93.0169 7.64943C93.0895 7.48286 93.2056 7.32911 93.3653 7.18816C93.5395 7.04722 93.6846 6.9319 93.8008 6.84221C93.9314 6.75252 94.1201 6.6372 94.3669 6.49625C94.6282 6.35531 94.8097 6.2528 94.9113 6.18874Z"/>
    <path d="M76.3053 10.2354L80.1618 5.46351C80.5573 4.88748 81.0941 4.56674 81.7722 4.50128C82.4502 4.42273 83.0435 4.58638 83.5521 4.99221C84.0606 5.39805 84.3008 5.94135 84.2725 6.62211V13.4559C84.2725 13.8879 84.103 14.2545 83.764 14.5556C83.4391 14.8436 83.0435 14.9876 82.5774 14.9876C82.1112 14.9876 81.7086 14.8436 81.3696 14.5556C81.0447 14.2545 80.8822 13.8879 80.8822 13.4559V9.21424L77.0257 13.9861C76.6302 14.5622 76.0934 14.8829 75.4153 14.9484C74.7373 15.0269 74.144 14.8633 73.6354 14.4574C73.1269 14.0516 72.8867 13.5083 72.915 12.8275V6.01336C72.915 5.58133 73.0774 5.21477 73.4023 4.91367C73.7413 4.61256 74.144 4.46201 74.6101 4.46201C75.0763 4.46201 75.4718 4.61256 75.7967 4.91367C76.1358 5.21477 76.3053 5.58133 76.3053 6.01336V10.2354Z"/>
    <path fill-rule="evenodd" clip-rule="evenodd" d="M58.967 13.3889V5.97502C58.967 5.54871 58.7887 5.18234 58.4323 4.87593C58.0901 4.5562 57.6837 4.39633 57.2132 4.39633C56.7569 4.39633 56.3576 4.5562 56.0154 4.87593C55.6732 5.18234 55.5021 5.54871 55.5021 5.97502V5.79517C55.331 5.3955 54.9888 5.05578 54.4755 4.77601C53.9622 4.48292 53.3776 4.33638 52.7217 4.33638C51.4384 4.33638 50.2549 4.80932 49.1712 5.7552C48.1161 6.70109 47.5885 8.00001 47.5885 9.65198C47.5885 11.3439 48.109 12.6562 49.1498 13.5887C50.1907 14.5213 51.3813 14.9876 52.7217 14.9876C53.3776 14.9876 53.955 14.8677 54.4541 14.6279C54.9531 14.3747 55.3167 14.075 55.5449 13.7286C55.6304 14.0883 55.8301 14.3881 56.1438 14.6279C56.4574 14.8543 56.8139 14.9676 57.2132 14.9676C57.6837 14.9676 58.0901 14.8144 58.4323 14.508C58.7887 14.2015 58.967 13.8285 58.967 13.3889ZM53.4968 12.0265C54.6657 12.0265 55.6133 11.0009 55.6133 9.73559C55.6133 8.47034 54.6657 7.44464 53.4968 7.44464C52.328 7.44464 51.3804 8.47034 51.3804 9.73559C51.3804 11.0009 52.328 12.0265 53.4968 12.0265Z"/>
    <path d="M43.0813 8.23733V6.09447C43.0813 5.65909 43.2578 5.28968 43.6109 4.98624C43.9639 4.6696 44.3758 4.51128 44.8466 4.51128C45.3173 4.51128 45.7292 4.6696 46.0822 4.98624C46.4353 5.28968 46.6118 5.65909 46.6118 6.09447V13.4365C46.6118 13.8719 46.4353 14.2413 46.0822 14.5448C45.7439 14.8482 45.332 14.9999 44.8466 14.9999C44.3611 14.9999 43.9419 14.8482 43.5888 14.5448C43.2505 14.2413 43.0813 13.8719 43.0813 13.4365V11.262H39.264V13.4365C39.264 13.8719 39.0875 14.2413 38.7344 14.5448C38.3961 14.8482 37.9842 14.9999 37.4988 14.9999C37.0133 14.9999 36.5941 14.8482 36.241 14.5448C35.9027 14.2413 35.7335 13.8719 35.7335 13.4365V6.09447C35.7335 5.65909 35.9101 5.28968 36.2631 4.98624C36.6161 4.6696 37.028 4.51128 37.4988 4.51128C37.9695 4.51128 38.3814 4.6696 38.7344 4.98624C39.0875 5.28968 39.264 5.65909 39.264 6.09447V8.23733H43.0813Z"/>
    <path d="M33.9622 4.51128C34.308 4.51128 34.6045 4.64246 34.8515 4.90482C35.0985 5.16718 35.222 5.7719 35.222 6.1392C35.222 6.50651 35.0985 6.8863 34.8515 7.14866C34.6045 7.41102 34.308 7.5033 33.9622 7.5033H31.0038V13.4743C31.0038 14.6043 30.0103 15 29.014 15C28.0896 15 27.207 14.4993 27.207 13.4849L27.2376 4.51128C27.2376 4.51128 32.3922 4.51128 33.9622 4.51128Z"/>
    <path d="M12.8551 0V13.3315C12.8551 13.7712 12.6164 14.1441 12.2855 14.4505C11.9684 14.757 11.4699 14.9102 11.0149 14.9102C10.5599 14.9102 9.9021 14.757 9.57117 14.4505C9.25404 14.1441 9.09547 13.7711 9.09547 13.3315V3.00913H3.77227V13.3315C3.77227 13.7711 3.60681 14.1441 3.27589 14.4505C2.95875 14.757 2.31306 14.9102 1.85804 14.9102C1.40303 14.9102 0.806623 14.757 0.475701 14.4505C0.158567 14.1441 0 13.7711 0 13.3315V0C4.26062 0 12.8551 0 12.8551 0Z"/>
    <path d="M24.6375 13.365C23.5609 14.3757 22.1202 14.8811 20.3154 14.8811C18.5106 14.8811 17.0778 14.3757 16.0171 13.365C14.9247 12.3391 14.3785 11.0569 14.3785 9.51811C14.3785 7.96428 14.9247 6.68199 16.0171 5.67125C17.0778 4.6605 18.5106 4.15513 20.3154 4.15513C22.1202 4.15513 23.5609 4.6605 24.6375 5.67125C25.714 6.69708 26.2523 7.97937 26.2523 9.51811C26.2523 11.0569 25.714 12.3391 24.6375 13.365ZM21.8353 7.93411C21.5345 7.61731 21.1624 7.42874 20.7191 7.36839C20.2917 7.29296 19.88 7.33068 19.4843 7.48154C19.1043 7.63239 18.7797 7.88885 18.5106 8.25091C18.2573 8.61297 18.1465 9.03537 18.1781 9.51811C18.1781 10.1517 18.376 10.6797 18.7718 11.1021C19.1835 11.5094 19.698 11.7131 20.3154 11.7131C20.9487 11.7131 21.4632 11.517 21.859 11.1247C22.2548 10.7174 22.4527 10.1819 22.4527 9.51811C22.4527 8.88451 22.2469 8.35651 21.8353 7.93411Z"/>
    <path d="M64.0219 4.46201C66.0459 4.46201 71.4392 4.49207 71.4392 4.49207C71.4392 4.49207 71.4433 11.0831 71.4433 13.3863C71.4433 13.8287 71.2612 14.2101 70.8972 14.5305C70.5497 14.8356 70.2353 14.9882 69.7058 14.9882C69.1763 14.9882 68.9064 15.0283 68.5424 14.7232C68.1949 14.4028 67.8752 13.8287 67.8752 13.3863V7.43679H65.4188C65.4188 11.7016 65.4189 12.6387 63.8482 14.1644C63.269 14.7136 62.5244 14.9882 61.6143 14.9882C61.0683 14.9882 60.7474 14.8573 60.4 14.5522C60.0525 14.2318 59.7828 13.7205 59.7828 13.2476C59.7828 12.2296 59.9964 11.8245 60.5424 11.1604C62.1091 11.1604 62.0413 10.7809 61.943 7.89444V6.06381C61.9596 5.62141 62.0413 4.46201 62.0413 4.46201C62.0413 4.46201 63.542 4.46201 64.0219 4.46201Z"/>
    <path d="M93.1598 12.7451C93.1598 13.9835 92.1101 14.9875 90.8153 14.9875C89.5204 14.9875 88.4707 13.9835 88.4707 12.7451C88.4707 11.5066 89.5204 10.5027 90.8153 10.5027C92.1101 10.5027 93.1598 11.5066 93.1598 12.7451Z"/>
  </symbol>

  <symbol id="logo-tablet" viewBox="0 0 111 21">
    <!-- <g filter="url(#filter0_d_13528_717)"> -->
    <path d="M107.789 8.05711C108.596 7.5496 109 6.76718 109 5.70986C109 4.32829 108.419 3.24278 107.257 2.45331C106.127 1.64975 104.795 1.24797 103.261 1.24797C101.76 1.24797 100.388 1.68499 99.1446 2.55904C97.9177 3.419 97.3043 4.56795 97.3043 6.00591C97.3043 6.54162 97.4738 6.98569 97.8128 7.33813C98.1518 7.67648 98.6361 7.84565 99.2657 7.84565C99.8791 7.84565 100.347 7.67648 100.67 7.33813C101.009 6.98569 101.179 6.54162 101.179 6.00591C101.146 5.59708 101.284 5.1812 101.59 4.75827C101.897 4.32125 102.454 4.10273 103.261 4.10273C103.939 4.11683 104.423 4.286 104.714 4.61025C105.021 4.93449 105.158 5.25874 105.126 5.58298C105.126 5.80854 105.045 6.0341 104.884 6.25967C104.722 6.48523 104.553 6.66145 104.375 6.78833C104.214 6.91521 103.947 7.09847 103.576 7.33813C103.205 7.57779 102.946 7.74697 102.801 7.84565C101.962 8.45185 101.542 9.25541 101.542 10.2563C101.542 10.7498 101.719 11.1656 102.075 11.504C102.446 11.8282 102.938 11.9903 103.552 11.9903C104.165 11.9903 104.649 11.8282 105.005 11.504C105.376 11.1656 105.562 10.7498 105.562 10.2563C105.562 10.0449 105.602 9.84751 105.683 9.66424C105.763 9.48097 105.892 9.3118 106.07 9.15673C106.264 9.00165 106.425 8.87477 106.554 8.77609C106.7 8.67741 106.91 8.55053 107.184 8.39545C107.475 8.24038 107.676 8.1276 107.789 8.05711Z"/>
    <path d="M87.098 12.5094L91.3867 7.25918C91.8266 6.62541 92.4236 6.27251 93.1776 6.20049C93.9317 6.11407 94.5915 6.29412 95.157 6.74064C95.7226 7.18716 95.9896 7.78493 95.9582 8.53393V16.0528C95.9582 16.5281 95.7697 16.9314 95.3927 17.2627C95.0313 17.5796 94.5915 17.7381 94.0731 17.7381C93.5547 17.7381 93.1069 17.5796 92.7299 17.2627C92.3686 16.9314 92.1879 16.5281 92.1879 16.0528V11.3859L87.8992 16.6362C87.4593 17.2699 86.8624 17.6228 86.1083 17.6949C85.3543 17.7813 84.6945 17.6012 84.1289 17.1547C83.5634 16.7082 83.2963 16.1104 83.3277 15.3614V7.86415C83.3277 7.38882 83.5084 6.98551 83.8697 6.65422C84.2467 6.32292 84.6945 6.15728 85.2129 6.15728C85.7313 6.15728 86.1712 6.32292 86.5325 6.65422C86.9095 6.98551 87.098 7.38882 87.098 7.86415V12.5094Z"/>
    <path fill-rule="evenodd" clip-rule="evenodd" d="M67.8165 15.9791V7.82197C67.8165 7.35292 67.6183 6.94983 67.2219 6.6127C66.8413 6.26091 66.3894 6.08502 65.8661 6.08502C65.3587 6.08502 64.9147 6.26091 64.5342 6.6127C64.1536 6.94983 63.9633 7.35292 63.9633 7.82197V7.62409C63.773 7.18435 63.3925 6.81058 62.8216 6.50277C62.2508 6.18029 61.6006 6.01906 60.8712 6.01906C59.4441 6.01906 58.128 6.53941 56.9229 7.58012C55.7495 8.62082 55.1628 10.05 55.1628 11.8675C55.1628 13.7291 55.7416 15.1729 56.8991 16.1989C58.0566 17.225 59.3807 17.738 60.8712 17.738C61.6006 17.738 62.2428 17.6061 62.7978 17.3422C63.3528 17.0637 63.7572 16.7339 64.0109 16.3528C64.106 16.7486 64.328 17.0784 64.6769 17.3422C65.0257 17.5914 65.4221 17.716 65.8661 17.716C66.3894 17.716 66.8413 17.5474 67.2219 17.2103C67.6183 16.8732 67.8165 16.4628 67.8165 15.9791ZM61.7333 14.4801C63.0332 14.4801 64.087 13.3516 64.087 11.9595C64.087 10.5674 63.0332 9.43892 61.7333 9.43892C60.4334 9.43892 59.3796 10.5674 59.3796 11.9595C59.3796 13.3516 60.4334 14.4801 61.7333 14.4801Z"/>
    <path d="M50.1504 10.3111V7.9534C50.1504 7.47437 50.3467 7.06793 50.7394 6.73406C51.132 6.38568 51.59 6.21149 52.1135 6.21149C52.637 6.21149 53.0951 6.38568 53.4877 6.73406C53.8803 7.06793 54.0766 7.47437 54.0766 7.9534V16.0315C54.0766 16.5105 53.8803 16.9169 53.4877 17.2508C53.1114 17.5847 52.6534 17.7516 52.1135 17.7516C51.5737 17.7516 51.1074 17.5847 50.7148 17.2508C50.3386 16.9169 50.1504 16.5105 50.1504 16.0315V13.639H45.9053V16.0315C45.9053 16.5105 45.709 16.9169 45.3164 17.2508C44.9401 17.5847 44.4821 17.7516 43.9422 17.7516C43.4024 17.7516 42.9361 17.5847 42.5435 17.2508C42.1673 16.9169 41.9791 16.5105 41.9791 16.0315V7.9534C41.9791 7.47437 42.1754 7.06793 42.5681 6.73406C42.9607 6.38568 43.4187 6.21149 43.9422 6.21149C44.4657 6.21149 44.9237 6.38568 45.3164 6.73406C45.709 7.06793 45.9053 7.47437 45.9053 7.9534V10.3111H50.1504Z"/>
    <path d="M40.0093 6.21149C40.3939 6.21149 40.7235 6.35583 40.9982 6.64449C41.2729 6.93315 41.4102 7.59849 41.4102 8.00261C41.4102 8.40674 41.2729 8.8246 40.9982 9.11326C40.7235 9.40193 40.3939 9.50346 40.0093 9.50346H36.7193V16.073C36.7193 17.3163 35.6144 17.7517 34.5065 17.7517C33.4785 17.7517 32.497 17.2008 32.497 16.0847L32.531 6.21149C32.531 6.21149 38.2633 6.21149 40.0093 6.21149Z"/>
    <path d="M16.5366 1.24797V15.916C16.5366 16.3997 16.2711 16.81 15.9031 17.1471C15.5504 17.4843 14.9961 17.6528 14.4901 17.6528C13.9841 17.6528 13.2526 17.4843 12.8846 17.1471C12.5319 16.81 12.3556 16.3996 12.3556 15.9159V4.55876H6.43578V15.9159C6.43578 16.3996 6.25177 16.81 5.88376 17.1471C5.53108 17.4843 4.81302 17.6528 4.30701 17.6528C3.80099 17.6528 3.13775 17.4843 2.76974 17.1471C2.41706 16.81 2.24072 16.3996 2.24072 15.9159V1.24797C6.97886 1.24797 16.5366 1.24797 16.5366 1.24797Z"/>
    <path d="M29.6395 15.9528C28.4423 17.0648 26.8401 17.6209 24.833 17.6209C22.8259 17.6209 21.2326 17.0648 20.053 15.9528C18.8382 14.8241 18.2308 13.4133 18.2308 11.7203C18.2308 10.0107 18.8382 8.59982 20.053 7.48775C21.2326 6.37568 22.8259 5.81964 24.833 5.81964C26.8401 5.81964 28.4423 6.37568 29.6395 7.48775C30.8367 8.61641 31.4353 10.0272 31.4353 11.7203C31.4353 13.4133 30.8367 14.8241 29.6395 15.9528ZM26.5232 9.97745C26.1887 9.62889 25.7749 9.42142 25.282 9.35503C24.8066 9.27204 24.3489 9.31353 23.9087 9.47951C23.4862 9.64549 23.1252 9.92766 22.8259 10.326C22.5442 10.7244 22.421 11.1891 22.4562 11.7203C22.4562 12.4174 22.6763 12.9983 23.1164 13.463C23.5742 13.9112 24.1464 14.1353 24.833 14.1353C25.5373 14.1353 26.1095 13.9195 26.5496 13.4879C26.9898 13.0398 27.2098 12.4506 27.2098 11.7203C27.2098 11.0231 26.981 10.4422 26.5232 9.97745Z"/>
    <path d="M73.438 6.15728C75.6888 6.15728 81.6866 6.19036 81.6866 6.19036C81.6866 6.19036 81.6911 13.4421 81.6911 15.9763C81.6911 16.463 81.4887 16.8826 81.0838 17.2351C80.6974 17.5708 80.3478 17.7386 79.7589 17.7386C79.1701 17.7386 78.87 17.7828 78.4651 17.4471C78.0787 17.0946 77.7231 16.463 77.7231 15.9763V9.43027H74.9914C74.9914 14.1227 74.9915 15.1537 73.2448 16.8323C72.6007 17.4365 71.7726 17.7386 70.7605 17.7386C70.1533 17.7386 69.7965 17.5946 69.4101 17.2589C69.0237 16.9065 68.7237 16.344 68.7237 15.8236C68.7237 14.7036 68.9613 14.2578 69.5685 13.5271C71.3108 13.5271 71.2353 13.1096 71.1261 9.93381V7.91966C71.1445 7.43291 71.2353 6.15728 71.2353 6.15728C71.2353 6.15728 72.9043 6.15728 73.438 6.15728Z"/>
    <path d="M105.841 15.2707C105.841 16.6333 104.674 17.7379 103.234 17.7379C101.794 17.7379 100.627 16.6333 100.627 15.2707C100.627 13.9081 101.794 12.8035 103.234 12.8035C104.674 12.8035 105.841 13.9081 105.841 15.2707Z"/>
    <!-- </g> -->
    <defs>
      <filter id="filter0_d_13528_717" x="0.240723" y="0.247967" width="110.759" height="20.5037" filterUnits="userSpaceOnUse" color-interpolation-filters="sRGB">
        <feFlood flood-opacity="0" result="BackgroundImageFix"/>
        <feColorMatrix in="SourceAlpha" type="matrix" values="0 0 0 0 0 0 0 0 0 0 0 0 0 0 0 0 0 0 127 0" result="hardAlpha"/>
        <feOffset dy="1"/>
        <feGaussianBlur stdDeviation="1"/>
        <feColorMatrix type="matrix" values="0 0 0 0 0 0 0 0 0 0 0 0 0 0 0 0 0 0 0.3 0"/>
        <feBlend mode="normal" in2="BackgroundImageFix" result="effect1_dropShadow_13528_717"/>
        <feBlend mode="normal" in="SourceGraphic" in2="effect1_dropShadow_13528_717" result="shape"/>
      </filter>
    </defs>
  </symbol>

  <symbol id="logo-desktop" viewBox="0 0 133 25">
    <!-- <g filter="url(#filter0_d_13528_964)"> -->
      <path d="M129.541 9.68704C130.513 9.08286 131 8.15141 131 6.8927C131 5.24797 130.299 3.95569 128.899 3.01585C127.538 2.05923 125.933 1.58092 124.085 1.58092C122.276 1.58092 120.623 2.10119 119.126 3.14172C117.647 4.16548 116.908 5.53328 116.908 7.24514C116.908 7.88288 117.113 8.41154 117.521 8.83112C117.929 9.23391 118.513 9.4353 119.272 9.4353C120.011 9.4353 120.575 9.23391 120.964 8.83112C121.372 8.41154 121.576 7.88288 121.576 7.24514C121.537 6.75843 121.703 6.26334 122.072 5.75985C122.442 5.23958 123.113 4.97945 124.085 4.97945C124.902 4.99623 125.486 5.19763 125.836 5.58363C126.205 5.96964 126.371 6.35564 126.332 6.74165C126.332 7.01017 126.234 7.2787 126.04 7.54723C125.846 7.81575 125.641 8.02554 125.427 8.17658C125.233 8.32763 124.912 8.54581 124.465 8.83112C124.017 9.11642 123.706 9.31782 123.531 9.4353C122.52 10.157 122.014 11.1136 122.014 12.3052C122.014 12.8926 122.228 13.3877 122.656 13.7905C123.103 14.1765 123.696 14.3695 124.435 14.3695C125.174 14.3695 125.758 14.1765 126.186 13.7905C126.633 13.3877 126.857 12.8926 126.857 12.3052C126.857 12.0534 126.906 11.8185 127.003 11.6003C127.1 11.3821 127.256 11.1807 127.47 10.9961C127.703 10.8115 127.897 10.6604 128.053 10.543C128.228 10.4255 128.481 10.2744 128.812 10.0898C129.162 9.90522 129.405 9.77096 129.541 9.68704Z"/>
      <path d="M104.612 14.9874L109.779 8.73713C110.309 7.98263 111.028 7.56252 111.937 7.47678C112.845 7.37389 113.64 7.58824 114.321 8.11981C115.003 8.65139 115.324 9.36301 115.287 10.2547V19.2057C115.287 19.7716 115.059 20.2517 114.605 20.6461C114.17 21.0234 113.64 21.212 113.015 21.212C112.391 21.212 111.851 21.0234 111.397 20.6461C110.962 20.2517 110.744 19.7716 110.744 19.2057V13.6499L105.577 19.9002C105.047 20.6547 104.328 21.0748 103.419 21.1606C102.511 21.2634 101.716 21.0491 101.034 20.5175C100.353 19.9859 100.031 19.2743 100.069 18.3826V9.45732C100.069 8.89145 100.287 8.41132 100.722 8.01693C101.176 7.62253 101.716 7.42534 102.34 7.42534C102.965 7.42534 103.495 7.62253 103.93 8.01693C104.385 8.41132 104.612 8.89145 104.612 9.45732V14.9874Z"/>
      <path fill-rule="evenodd" clip-rule="evenodd" d="M81.381 19.1179V9.40711C81.381 8.84872 81.1422 8.36885 80.6645 7.9675C80.206 7.54871 79.6615 7.33931 79.0311 7.33931C78.4198 7.33931 77.8848 7.54871 77.4263 7.9675C76.9678 8.36885 76.7385 8.84872 76.7385 9.40711V9.17154C76.5093 8.64805 76.0508 8.20308 75.363 7.83663C74.6753 7.45273 73.892 7.26079 73.0132 7.26079C71.2937 7.26079 69.7081 7.88025 68.2561 9.11919C66.8424 10.3581 66.1355 12.0595 66.1355 14.2233C66.1355 16.4394 66.8328 18.1582 68.2275 19.3797C69.6221 20.6012 71.2173 21.2119 73.0132 21.2119C73.892 21.2119 74.6657 21.0549 75.3344 20.7408C76.003 20.4092 76.4902 20.0166 76.7959 19.5629C76.9105 20.034 77.178 20.4267 77.5983 20.7408C78.0186 21.0374 78.4962 21.1857 79.0311 21.1857C79.6615 21.1857 80.206 20.9851 80.6645 20.5837C81.1422 20.1824 81.381 19.6938 81.381 19.1179ZM74.0518 17.3335C75.6179 17.3335 76.8875 15.99 76.8875 14.3328C76.8875 12.6755 75.6179 11.3321 74.0518 11.3321C72.4857 11.3321 71.2161 12.6755 71.2161 14.3328C71.2161 15.99 72.4857 17.3335 74.0518 17.3335Z"/>
      <path d="M60.0965 12.3703V9.56357C60.0965 8.99331 60.3331 8.50944 60.8061 8.11199C61.2791 7.69725 61.831 7.48988 62.4617 7.48988C63.0924 7.48988 63.6443 7.69725 64.1173 8.11199C64.5903 8.50944 64.8269 8.99331 64.8269 9.56357V19.1803C64.8269 19.7506 64.5903 20.2345 64.1173 20.6319C63.664 21.0294 63.1121 21.2281 62.4617 21.2281C61.8113 21.2281 61.2496 21.0294 60.7765 20.6319C60.3232 20.2345 60.0965 19.7506 60.0965 19.1803V16.3321H54.9819V19.1803C54.9819 19.7506 54.7454 20.2345 54.2724 20.6319C53.819 21.0294 53.2672 21.2281 52.6168 21.2281C51.9663 21.2281 51.4046 21.0294 50.9316 20.6319C50.4783 20.2345 50.2516 19.7506 50.2516 19.1803V9.56357C50.2516 8.99331 50.4881 8.50944 50.9612 8.11199C51.4342 7.69725 51.986 7.48988 52.6168 7.48988C53.2475 7.48988 53.7993 7.69725 54.2724 8.11199C54.7454 8.50944 54.9819 8.99331 54.9819 9.56357V12.3703H60.0965Z"/>
      <path d="M47.8784 7.48988C48.3417 7.48988 48.7388 7.6617 49.0698 8.00535C49.4007 8.34899 49.5662 9.14106 49.5662 9.62216C49.5662 10.1033 49.4007 10.6007 49.0698 10.9444C48.7388 11.288 48.3417 11.4089 47.8784 11.4089H43.9145V19.2298C43.9145 20.7099 42.5833 21.2282 41.2484 21.2282C40.0099 21.2282 38.8274 20.5724 38.8274 19.2437L38.8683 7.48988C38.8683 7.48988 45.7747 7.48988 47.8784 7.48988Z"/>
      <path d="M19.598 1.58092V19.0428C19.598 19.6187 19.2781 20.1072 18.8347 20.5085C18.4098 20.9099 17.742 21.1105 17.1323 21.1105C16.5227 21.1105 15.6414 20.9099 15.198 20.5085C14.7731 20.1072 14.5606 19.6186 14.5606 19.0427V5.52233H7.4283V19.0427C7.4283 19.6186 7.20661 20.1072 6.76322 20.5085C6.33831 20.9099 5.47318 21.1105 4.86352 21.1105C4.25387 21.1105 3.45478 20.9099 3.01139 20.5085C2.58648 20.1072 2.37402 19.6186 2.37402 19.0427V1.58092C8.08262 1.58092 19.598 1.58092 19.598 1.58092Z"/>
      <path d="M35.3845 19.0866C33.9421 20.4105 32.0118 21.0725 29.5936 21.0725C27.1755 21.0725 25.2558 20.4105 23.8346 19.0866C22.3709 17.743 21.6391 16.0634 21.6391 14.0479C21.6391 12.0127 22.3709 10.3331 23.8346 9.00922C25.2558 7.68533 27.1755 7.02339 29.5936 7.02339C32.0118 7.02339 33.9421 7.68533 35.3845 9.00922C36.827 10.3529 37.5482 12.0324 37.5482 14.0479C37.5482 16.0634 36.827 17.743 35.3845 19.0866ZM31.63 11.9732C31.227 11.5582 30.7285 11.3112 30.1346 11.2322C29.5618 11.1334 29.0103 11.1828 28.48 11.3804C27.9709 11.578 27.5361 11.9139 27.1755 12.3881C26.8361 12.8623 26.6876 13.4156 26.73 14.0479C26.73 14.8778 26.9952 15.5694 27.5255 16.1227C28.077 16.6562 28.7664 16.9229 29.5936 16.9229C30.4421 16.9229 31.1315 16.6661 31.6618 16.1523C32.1921 15.6188 32.4573 14.9173 32.4573 14.0479C32.4573 13.218 32.1815 12.5264 31.63 11.9732Z"/>
      <path d="M88.1538 7.42534C90.8657 7.42534 98.0919 7.46471 98.0919 7.46471C98.0919 7.46471 98.0973 16.0977 98.0973 19.1146C98.0973 19.6941 97.8534 20.1936 97.3657 20.6132C96.9001 21.0129 96.4789 21.2127 95.7694 21.2127C95.0599 21.2127 94.6984 21.2652 94.2106 20.8656C93.745 20.446 93.3167 19.6941 93.3167 19.1146V11.3218H90.0254C90.0254 16.908 90.0255 18.1353 87.921 20.1337C87.145 20.853 86.1474 21.2127 84.928 21.2127C84.1963 21.2127 83.7665 21.0412 83.3009 20.6416C82.8354 20.222 82.474 19.5523 82.474 18.9329C82.474 17.5995 82.7602 17.0689 83.4918 16.199C85.591 16.199 85.5 15.7019 85.3684 11.9212V9.52341C85.3906 8.94394 85.5 7.42534 85.5 7.42534C85.5 7.42534 87.5109 7.42534 88.1538 7.42534Z"/>
      <path d="M127.194 18.2747C127.194 19.8968 125.788 21.2118 124.053 21.2118C122.318 21.2118 120.912 19.8968 120.912 18.2747C120.912 16.6525 122.318 15.3375 124.053 15.3375C125.788 15.3375 127.194 16.6525 127.194 18.2747Z"/>
    <!-- </g> -->
    <defs>
      <filter id="filter0_d_13528_964" x="0.374023" y="0.580917" width="132.625" height="23.6473" filterUnits="userSpaceOnUse" color-interpolation-filters="sRGB">
        <feFlood flood-opacity="0" result="BackgroundImageFix"/>
        <feColorMatrix in="SourceAlpha" type="matrix" values="0 0 0 0 0 0 0 0 0 0 0 0 0 0 0 0 0 0 127 0" result="hardAlpha"/>
        <feOffset dy="1"/>
        <feGaussianBlur stdDeviation="1"/>
        <feColorMatrix type="matrix" values="0 0 0 0 0 0 0 0 0 0 0 0 0 0 0 0 0 0 0.3 0"/>
        <feBlend mode="normal" in2="BackgroundImageFix" result="effect1_dropShadow_13528_964"/>
        <feBlend mode="normal" in="SourceGraphic" in2="effect1_dropShadow_13528_964" result="shape"/>
      </filter>
    </defs>
  </symbol>


  <symbol id="facebook" viewBox="0 0 11 21" fill="none">
    <path d="M7.48786 20.8125H2.12929V11.1375H0V6.3525H2.06643C1.90929 4.185 2.30214 2.6025 3.26071 1.5225C3.71777 1.04316 4.27461 0.66015 4.89562 0.397985C5.51662 0.13582 6.18812 0.000268301 6.86714 0L10.6229 0V4.6125H7.66857C7.49452 5.1766 7.42799 5.76595 7.47214 6.3525H10.615V11.1375H7.47214L7.48786 20.8125ZM3.31571 19.6875H6.28571V10.0125H9.42857V7.5H6.28571V6.93C6.28571 5.43 6.28571 4.0875 7.07143 3.585L7.22071 3.4875H9.42857V1.125H6.89857C6.38444 1.11866 5.87465 1.21553 5.40225 1.40933C4.92986 1.60314 4.50541 1.88955 4.15643 2.25C3.37071 3.1725 3.04857 4.7175 3.29214 6.855L3.37071 7.4775H1.17857V10.0125H3.31571V19.6875Z" fill="#192144"/>
  </symbol>

  <symbol id="facebook-tablet" viewBox="0 0 14 28" fill="none">
    <path d="M9.53 27.75H2.71V14.85H0V8.47H2.63C2.43 5.58 2.93 3.47 4.15 2.03C4.73171 1.39087 5.44042 0.8802 6.23079 0.530647C7.02116 0.181094 7.87578 0.000357734 8.74 0L13.52 0V6.15H9.76C9.53848 6.90214 9.4538 7.68794 9.51 8.47H13.51V14.85H9.51L9.53 27.75ZM4.22 26.25H8V13.35H12V10H8V9.24C8 7.24 8 5.45 9 4.78L9.19 4.65H12V1.5H8.78C8.12565 1.49154 7.47682 1.62071 6.87559 1.87911C6.27436 2.13752 5.73416 2.5194 5.29 3C4.29 4.23 3.88 6.29 4.19 9.14L4.29 9.97H1.5V13.35H4.22V26.25Z" fill="#192144"/>
  </symbol>

  <symbol id="vkontakte" viewBox="0 0 23 12" fill="none">
    <path d="M17.7664 11.8331C17.219 11.8207 16.6854 11.6573 16.2232 11.3606C15.7407 11.031 15.2975 10.6459 14.9026 10.2132C14.5761 9.88315 14.0345 9.32815 13.8268 9.32815C13.619 9.32815 13.4706 10.0181 13.478 10.5056C13.4812 10.8422 13.3564 11.167 13.1293 11.4131C12.8712 11.6263 12.5561 11.7569 12.2242 11.7881H10.7997C8.75222 11.7426 6.79178 10.9425 5.28708 9.53815C2.55676 7.01065 0.21224 2.18065 0.115789 1.97065C0.0237889 1.79521 -0.0147389 1.59616 0.00506792 1.3986C0.0248747 1.20105 0.102128 1.01386 0.227079 0.860649C0.509857 0.622256 0.867951 0.494496 1.23611 0.500649H4.26321H4.35224C4.6027 0.537588 4.84277 0.626997 5.05708 0.763149C5.25875 0.899848 5.42022 1.08899 5.5245 1.31065C5.8444 2.00295 6.2113 2.67204 6.62256 3.31315C7.5945 4.81315 8.02482 5.15815 8.18063 5.23315C8.35396 4.52985 8.40169 3.80091 8.3216 3.08065C8.3476 2.7526 8.29412 2.4231 8.16579 2.12065C8.00289 1.98893 7.80288 1.91278 7.5945 1.90315L7.05289 1.38565C6.94901 0.890649 7.49063 0.463149 7.86902 0.298149C8.62414 0.0589723 9.41638 -0.0376377 10.2061 0.013149H10.7329C11.2686 -0.000953053 11.8041 0.0494006 12.328 0.163149C13.5893 0.433149 13.5448 1.46065 13.4929 2.64565C13.4929 2.99065 13.4558 3.39565 13.4558 3.86065C13.4558 3.97315 13.4558 4.09315 13.4558 4.22065C13.4266 4.54717 13.4492 4.87631 13.5226 5.19565C14.1402 4.67331 14.6604 4.04337 15.0584 3.33565C15.4879 2.66645 15.865 1.96431 16.1861 1.23565C16.2839 1.00519 16.4516 0.812043 16.6649 0.684009C16.8782 0.555974 17.1262 0.499653 17.3732 0.523149H20.5487C20.6425 0.514104 20.7369 0.514104 20.8306 0.523149C21.5726 0.523149 22.0103 0.740649 22.1884 1.16065C22.3664 1.58065 22.3145 2.40565 20.4374 4.61815L19.6955 5.46565C19.336 5.81847 19.0264 6.21976 18.7755 6.65815C19.0565 6.98108 19.3754 7.2682 19.7251 7.51315C20.5778 8.16264 21.3283 8.93894 21.951 9.81565C22.097 9.98613 22.1925 10.1948 22.2266 10.4176C22.2608 10.6405 22.2321 10.8685 22.1439 11.0756C21.9884 11.3051 21.7803 11.4931 21.5375 11.6237C21.2946 11.7542 21.0241 11.8235 20.749 11.8256L17.9371 11.8631L17.7664 11.8331ZM13.8268 8.20315C14.4945 8.20315 15.0732 8.79565 15.689 9.41815C16.0217 9.78534 16.3951 10.1125 16.8019 10.3931C17.1096 10.6 17.4711 10.7096 17.8406 10.7081H17.9148L20.7342 10.6706C20.8732 10.6626 21.0094 10.6269 21.1348 10.5656L21.0606 10.4456C20.499 9.67196 19.8292 8.98479 19.0722 8.40565C18.1893 7.65565 17.7368 7.30315 17.6848 6.72565C17.6329 6.14815 18.0484 5.64565 18.8793 4.69315L19.6213 3.86065C20.2477 3.21479 20.7619 2.46681 21.1422 1.64815C20.9767 1.63823 20.8107 1.63823 20.6451 1.64815H17.4029C17.3443 1.6349 17.2835 1.6349 17.2248 1.64815C16.8814 2.44423 16.4719 3.20947 16.0006 3.93565C14.5984 6.05065 13.938 6.33565 13.4706 6.33565C13.3257 6.33565 13.183 6.29959 13.0551 6.23065C12.3132 5.80315 12.3132 4.85065 12.3577 4.16065C12.3577 4.04815 12.3577 3.93565 12.3577 3.83815C12.3577 3.35065 12.3577 2.93065 12.3948 2.57065C12.4542 1.31065 12.3948 1.30315 12.1129 1.23565C11.6586 1.14491 11.1958 1.10467 10.7329 1.11565H10.221C9.74988 1.10581 9.27872 1.13088 8.81127 1.19065C8.88206 1.24338 8.94459 1.30659 8.99676 1.37815C9.30278 1.8659 9.4554 2.43595 9.4345 3.01315C9.53095 4.25065 9.47902 5.86315 8.69256 6.25315C8.5533 6.31903 8.40115 6.35235 8.2474 6.35065C7.5574 6.35065 6.87482 5.69065 5.70998 3.90565C5.26298 3.22218 4.86383 2.50794 4.51547 1.76815L4.45611 1.69315C4.38118 1.65454 4.30126 1.62677 4.21869 1.61065H1.25095H1.19901C1.63676 2.52565 3.71418 6.57565 6.03643 8.69815C7.34044 9.90918 9.02993 10.6088 10.7997 10.6706H12.1722C12.2422 10.6555 12.3097 10.6303 12.3726 10.5956C12.3726 10.5956 12.3726 10.5956 12.3726 10.5281C12.3726 10.3256 12.3726 8.57815 13.5448 8.27815C13.6356 8.24202 13.7302 8.21685 13.8268 8.20315Z" fill="#192144"/>
  </symbol>

  <symbol id="vkontakte-tablet" viewBox="0 0 31 16" fill="none">
    <path d="M23.9461 15.7775C23.2083 15.761 22.4891 15.5431 21.8661 15.1475C21.2157 14.7079 20.6184 14.1945 20.0861 13.6175C19.6461 13.1775 18.9161 12.4375 18.6361 12.4375C18.3561 12.4375 18.1561 13.3575 18.1661 14.0075C18.1703 14.4562 18.0021 14.8894 17.6961 15.2175C17.3481 15.5018 16.9234 15.6758 16.4761 15.7175H14.5561C11.7965 15.6568 9.15414 14.59 7.12606 12.7175C3.44606 9.34753 0.286063 2.90753 0.156063 2.62753C0.0320633 2.39361 -0.0198655 2.12821 0.00683068 1.86481C0.0335268 1.6014 0.137651 1.35181 0.306063 1.14753C0.687199 0.829675 1.16985 0.659328 1.66606 0.667532H5.74606H5.86606C6.20364 0.716784 6.52722 0.835995 6.81606 1.01753C7.08788 1.1998 7.30552 1.45198 7.44606 1.74753C7.87724 2.6706 8.37175 3.56273 8.92606 4.41753C10.2361 6.41753 10.8161 6.87753 11.0261 6.97753C11.2597 6.03979 11.324 5.06788 11.2161 4.10753C11.2511 3.67014 11.179 3.2308 11.0061 2.82753C10.7865 2.65191 10.5169 2.55038 10.2361 2.53753L9.50606 1.84753C9.36606 1.18753 10.0961 0.617532 10.6061 0.397532C11.6238 0.0786297 12.6916 -0.0501836 13.7561 0.017532H14.4661C15.1881 -0.00127074 15.9099 0.0658674 16.6161 0.217532C18.3161 0.577532 18.2561 1.94753 18.1861 3.52753C18.1861 3.98753 18.1361 4.52753 18.1361 5.14753C18.1361 5.29753 18.1361 5.45753 18.1361 5.62753C18.0967 6.06289 18.1271 6.50174 18.2261 6.92753C19.0586 6.23108 19.7597 5.39116 20.2961 4.44753C20.875 3.55527 21.3832 2.61908 21.8161 1.64753C21.9479 1.34025 22.1739 1.08272 22.4614 0.912012C22.7489 0.741299 23.0832 0.666204 23.4161 0.697532H27.6961C27.8224 0.685471 27.9497 0.685471 28.0761 0.697532C29.0761 0.697532 29.6661 0.987532 29.9061 1.54753C30.1461 2.10753 30.0761 3.20753 27.5461 6.15753L26.5461 7.28753C26.0616 7.75797 25.6443 8.29301 25.3061 8.87753C25.6848 9.30811 26.1147 9.69093 26.5861 10.0175C27.7353 10.8835 28.7468 11.9186 29.5861 13.0875C29.7829 13.3148 29.9117 13.593 29.9576 13.8901C30.0036 14.1873 29.965 14.4914 29.8461 14.7675C29.6365 15.0734 29.3561 15.3241 29.0288 15.4982C28.7014 15.6723 28.3368 15.7647 27.9661 15.7675L24.1761 15.8175L23.9461 15.7775ZM18.6361 10.9375C19.5361 10.9375 20.3161 11.7275 21.1461 12.5575C21.5944 13.0471 22.0977 13.4833 22.6461 13.8575C23.0607 14.1333 23.5481 14.2795 24.0461 14.2775H24.1461L27.9461 14.2275C28.1335 14.2168 28.317 14.1692 28.4861 14.0875L28.3861 13.9275C27.6291 12.8959 26.7263 11.9797 25.7061 11.2075C24.5161 10.2075 23.9061 9.73753 23.8361 8.96753C23.7661 8.19753 24.3261 7.52753 25.4461 6.25753L26.4461 5.14753C27.2903 4.28639 27.9834 3.28908 28.4961 2.19753C28.2729 2.1843 28.0492 2.1843 27.8261 2.19753H23.4561C23.377 2.17986 23.2951 2.17986 23.2161 2.19753C22.7532 3.25898 22.2012 4.27929 21.5661 5.24753C19.6761 8.06753 18.7861 8.44753 18.1561 8.44753C17.9607 8.44753 17.7684 8.39945 17.5961 8.30753C16.5961 7.73753 16.5961 6.46753 16.6561 5.54753C16.6561 5.39753 16.6561 5.24753 16.6561 5.11753C16.6561 4.46753 16.6561 3.90753 16.7061 3.42753C16.7861 1.74753 16.7061 1.73753 16.3261 1.64753C15.7138 1.52655 15.09 1.4729 14.4661 1.48753H13.7761C13.1411 1.47441 12.5061 1.50784 11.8761 1.58753C11.9715 1.65784 12.0558 1.74212 12.1261 1.83753C12.5385 2.48787 12.7442 3.24794 12.7161 4.01753C12.8461 5.66753 12.7761 7.81753 11.7161 8.33753C11.5284 8.42537 11.3233 8.4698 11.1161 8.46753C10.1861 8.46753 9.26606 7.58753 7.69606 5.20753C7.09358 4.29624 6.5556 3.34392 6.08606 2.35753L6.00606 2.25753C5.90508 2.20606 5.79736 2.16903 5.68606 2.14753H1.68606H1.61606C2.20606 3.36753 5.00606 8.76753 8.13606 11.5975C9.89364 13.2122 12.1708 14.1451 14.5561 14.2275H16.4061C16.5004 14.2074 16.5914 14.1737 16.6761 14.1275C16.6761 14.1275 16.6761 14.1275 16.6761 14.0375C16.6761 13.7675 16.6761 11.4375 18.2561 11.0375C18.3784 10.9894 18.5059 10.9558 18.6361 10.9375Z" fill="#192144"/>
  </symbol>

  <symbol id="instagram" viewBox="0 0 18 18" fill="none">
    <path d="M12.9602 1.80061C13.8189 1.80251 14.6419 2.14448 15.2491 2.75169C15.8563 3.35889 16.1982 4.18189 16.2002 5.04061V12.9606C16.1982 13.8193 15.8563 14.6423 15.2491 15.2495C14.6419 15.8567 13.8189 16.1987 12.9602 16.2006H5.04015C4.18269 16.1968 3.36153 15.854 2.75588 15.247C2.15022 14.64 1.80925 13.8181 1.80735 12.9606V5.04061C1.80925 4.18314 2.15022 3.36122 2.75588 2.75422C3.36153 2.14722 4.18269 1.80441 5.04015 1.80061H12.9602ZM12.9602 0.720612H5.04015C3.89442 0.720612 2.79561 1.17575 1.98545 1.98591C1.1753 2.79607 0.720154 3.89488 0.720154 5.04061L0.720154 12.9606C0.720154 14.1063 1.1753 15.2052 1.98545 16.0153C2.79561 16.8255 3.89442 17.2806 5.04015 17.2806H12.9602C14.1059 17.2806 15.2047 16.8255 16.0149 16.0153C16.825 15.2052 17.2802 14.1063 17.2802 12.9606V5.04061C17.2802 3.89488 16.825 2.79607 16.0149 1.98591C15.2047 1.17575 14.1059 0.720612 12.9602 0.720612V0.720612Z" fill="#192144"/>
    <path d="M9.00697 5.81737C9.63781 5.81737 10.2545 6.00444 10.779 6.35492C11.3035 6.7054 11.7124 7.20354 11.9538 7.78637C12.1952 8.36919 12.2584 9.01051 12.1353 9.62923C12.0122 10.248 11.7084 10.8163 11.2624 11.2624C10.8163 11.7084 10.248 12.0122 9.62923 12.1353C9.01051 12.2584 8.36918 12.1952 7.78636 11.9538C7.20354 11.7124 6.70539 11.3035 6.35491 10.779C6.00443 10.2545 5.81737 9.63782 5.81737 9.00697C5.81642 8.58784 5.89827 8.17265 6.05823 7.78524C6.21818 7.39784 6.45309 7.04584 6.74946 6.74947C7.04583 6.4531 7.39783 6.21819 7.78524 6.05823C8.17265 5.89828 8.58784 5.81642 9.00697 5.81737ZM9.00697 4.73737C8.16222 4.73595 7.33602 4.98514 6.63295 5.45343C5.92987 5.92171 5.3815 6.58803 5.05724 7.36807C4.73298 8.14811 4.6474 9.00681 4.81133 9.83551C4.97526 10.6642 5.38133 11.4256 5.97816 12.0235C6.57498 12.6213 7.33574 13.0287 8.16416 13.194C8.99258 13.3593 9.85142 13.2752 10.632 12.9523C11.4126 12.6293 12.0798 12.0821 12.5493 11.3798C13.0188 10.6775 13.2694 9.85173 13.2694 9.00697C13.2703 8.44662 13.1608 7.89158 12.947 7.37361C12.7332 6.85564 12.4194 6.38491 12.0235 5.98835C11.6276 5.59178 11.1574 5.27717 10.6398 5.06252C10.1222 4.84786 9.56732 4.73737 9.00697 4.73737Z" fill="#192144"/>
    <path d="M13.4282 5.55936C13.9611 5.55936 14.393 5.12741 14.393 4.59456C14.393 4.06172 13.9611 3.62976 13.4282 3.62976C12.8954 3.62976 12.4634 4.06172 12.4634 4.59456C12.4634 5.12741 12.8954 5.55936 13.4282 5.55936Z" fill="#192144"/>
  </symbol>

  <symbol id="instagram-tablet" viewBox="0 0 24 24" fill="none">
    <path d="M17.2802 2.40088C18.4252 2.40341 19.5225 2.85937 20.3321 3.66898C21.1417 4.47858 21.5977 5.57592 21.6002 6.72088V17.2809C21.5977 18.4258 21.1417 19.5232 20.3321 20.3328C19.5225 21.1424 18.4252 21.5983 17.2802 21.6009H6.7202C5.57691 21.5958 4.48204 21.1387 3.6745 20.3294C2.86696 19.5201 2.41233 18.4242 2.4098 17.2809V6.72088C2.41233 5.57758 2.86696 4.48169 3.6745 3.67235C4.48204 2.86302 5.57691 2.40594 6.7202 2.40088H17.2802ZM17.2802 0.960876H6.7202C5.19256 0.960876 3.72748 1.56773 2.64727 2.64794C1.56706 3.72815 0.960205 5.19323 0.960205 6.72088L0.960205 17.2809C0.960205 18.8085 1.56706 20.2736 2.64727 21.3538C3.72748 22.434 5.19256 23.0409 6.7202 23.0409H17.2802C18.8078 23.0409 20.2729 22.434 21.3531 21.3538C22.4333 20.2736 23.0402 18.8085 23.0402 17.2809V6.72088C23.0402 5.19323 22.4333 3.72815 21.3531 2.64794C20.2729 1.56773 18.8078 0.960876 17.2802 0.960876V0.960876Z" fill="#192144"/>
    <path d="M12.0093 7.75648C12.8504 7.75648 13.6727 8.0059 14.372 8.4732C15.0714 8.94051 15.6165 9.6047 15.9384 10.3818C16.2603 11.1589 16.3445 12.014 16.1804 12.839C16.0163 13.6639 15.6112 14.4217 15.0165 15.0165C14.4217 15.6112 13.6639 16.0163 12.839 16.1804C12.014 16.3445 11.1589 16.2602 10.3818 15.9384C9.60472 15.6165 8.94052 15.0714 8.47321 14.372C8.00591 13.6726 7.75649 12.8504 7.75649 12.0093C7.75522 11.4504 7.86436 10.8968 8.07764 10.3803C8.29091 9.86376 8.60412 9.39443 8.99928 8.99927C9.39444 8.60411 9.86377 8.2909 10.3803 8.07762C10.8969 7.86435 11.4504 7.75521 12.0093 7.75648ZM12.0093 6.31648C10.883 6.31458 9.78137 6.64684 8.84393 7.27122C7.90649 7.89559 7.17533 8.78402 6.74299 9.82408C6.31064 10.8641 6.19653 12.0091 6.4151 13.114C6.63368 14.2189 7.17511 15.2342 7.97088 16.0313C8.76664 16.8284 9.78099 17.3715 10.8855 17.592C11.9901 17.8124 13.1352 17.7002 14.176 17.2697C15.2168 16.8391 16.1065 16.1094 16.7324 15.173C17.3584 14.2366 17.6925 13.1356 17.6925 12.0093C17.6938 11.2621 17.5477 10.5221 17.2626 9.83146C16.9776 9.14084 16.5592 8.51319 16.0313 7.98444C15.5035 7.45569 14.8765 7.03621 14.1864 6.75C13.4962 6.46379 12.7564 6.31647 12.0093 6.31648Z" fill="#192144"/>
    <path d="M17.9043 7.41252C18.6148 7.41252 19.1907 6.83658 19.1907 6.12612C19.1907 5.41566 18.6148 4.83972 17.9043 4.83972C17.1939 4.83972 16.6179 5.41566 16.6179 6.12612C16.6179 6.83658 17.1939 7.41252 17.9043 7.41252Z" fill="#192144"/>
  </symbol>


</svg>



